<?xml version="1.0" standalone="no"?>
<!DOCTYPE svg PUBLIC "-//W3C//DTD SVG 20010904//EN"
 "http://www.w3.org/TR/2001/REC-SVG-20010904/DTD/svg10.dtd">
<svg version="1.0" xmlns="http://www.w3.org/2000/svg"
 width="225.000000pt" height="225.000000pt" viewBox="0 0 225.000000 225.000000"
 preserveAspectRatio="xMidYMid meet">

<g transform="translate(0.000000,225.000000) scale(0.100000,-0.100000)"
fill="#000000" stroke="none">
<path d="M1094 2149 c-10 -12 -79 -77 -152 -145 l-132 -124 -208 -2 -207 -3
-5 -210 c-3 -135 -9 -217 -17 -230 -6 -11 -73 -81 -147 -155 -75 -74 -136
-141 -136 -149 0 -8 65 -81 145 -162 80 -81 145 -155 146 -165 0 -11 2 -105 4
-211 2 -106 6 -197 10 -203 4 -6 83 -10 218 -10 l212 0 145 -145 c80 -80 151
-145 159 -145 8 0 83 68 167 150 l152 150 209 0 c149 0 212 3 221 12 9 9 12
72 12 223 l0 210 140 140 c77 77 140 146 140 155 0 8 -64 79 -142 157 -138
139 -142 143 -149 195 -11 79 -10 181 2 280 9 69 9 91 -1 103 -10 12 -47 15
-220 15 l-207 0 -39 29 c-21 16 -91 81 -154 145 -63 64 -122 116 -131 116 -9
0 -24 -10 -35 -21z m183 -164 l138 -145 214 0 213 0 -3 -205 -4 -205 148 -148
149 -149 -146 -143 -146 -143 0 -212 0 -212 -202 5 -203 4 -150 -151 -150
-151 -145 145 -145 145 -210 2 -210 3 4 204 4 203 -152 152 -152 152 146 138
145 138 0 214 0 214 208 0 207 0 145 145 c80 80 148 145 152 145 3 0 69 -65
145 -145z"/>
<path d="M1061 1733 c-1 -41 10 -55 37 -45 14 5 16 51 2 72 -7 11 -10 5 -10
-24 0 -45 -16 -39 -23 9 -3 24 -4 22 -6 -12z"/>
<path d="M1270 1709 l-21 -41 20 7 c14 4 21 2 21 -7 0 -10 3 -9 10 2 13 19 13
67 0 75 -5 3 -19 -13 -30 -36z"/>
<path d="M1342 1696 c-16 -44 -15 -54 3 -30 14 18 14 18 15 -4 0 -13 4 -21 9
-18 13 8 32 66 21 66 -5 0 -11 -8 -13 -17 -4 -14 -5 -13 -6 4 -2 35 -16 35
-29 -1z"/>
<path d="M870 1703 c-1 -40 39 -79 55 -53 3 6 -1 10 -9 10 -9 0 -16 4 -16 8 0
13 -29 48 -30 35z"/>
<path d="M820 1683 c0 -5 7 -17 15 -27 17 -22 19 -36 7 -36 -5 0 -14 11 -20
25 -6 14 -16 25 -22 25 -6 0 -4 -12 5 -30 9 -18 23 -30 35 -30 23 0 25 17 8
55 -10 23 -28 35 -28 18z"/>
<path d="M1447 1642 c-30 -31 -34 -44 -12 -36 9 4 15 0 15 -10 0 -29 16 -17
28 21 15 49 2 60 -31 25z m23 -12 c0 -5 -5 -10 -11 -10 -5 0 -7 5 -4 10 3 6 8
10 11 10 2 0 4 -4 4 -10z"/>
<path d="M745 1609 c2 -31 20 -58 31 -47 3 4 0 17 -7 30 -12 23 -12 23 10 4
29 -26 27 -5 -2 22 -31 29 -35 28 -32 -9z"/>
<path d="M1507 1592 c-21 -22 -24 -31 -15 -40 7 -7 17 -12 22 -12 6 0 5 5 -2
12 -9 9 -7 17 10 35 12 13 19 25 16 28 -2 3 -16 -8 -31 -23z"/>
<path d="M700 1603 c1 -10 47 -63 55 -63 3 0 -3 12 -12 27 -10 15 -17 30 -15
33 2 3 -4 6 -12 8 -9 2 -16 0 -16 -5z"/>
<path d="M1120 1587 c0 -26 -70 -94 -167 -163 -116 -81 -179 -138 -199 -175
-20 -40 -17 -99 8 -139 11 -19 24 -48 28 -65 4 -16 11 -29 17 -28 127 26 205
22 285 -13 34 -15 39 -15 95 6 65 25 181 31 246 12 36 -10 37 -10 37 18 0 15
7 33 14 40 8 6 23 32 32 56 33 87 -8 148 -186 274 -92 65 -190 158 -190 180 0
5 -4 10 -10 10 -5 0 -10 -6 -10 -13z m59 -121 c14 -15 60 -51 101 -79 160
-107 197 -150 187 -214 -9 -54 -45 -104 -70 -98 -12 2 -52 7 -89 10 -66 6 -68
8 -68 34 0 15 -9 44 -20 66 -20 39 -20 39 0 58 17 15 19 26 14 55 -9 52 -25
65 -87 70 -55 4 -55 4 -62 -27 -9 -40 3 -106 21 -122 8 -6 25 -11 39 -11 28 0
29 -2 15 -28 -10 -18 -13 -18 -57 16 -45 34 -46 35 -60 14 -12 -18 -12 -22 1
-36 9 -8 16 -19 16 -22 0 -4 23 -18 51 -30 55 -26 62 -39 10 -21 -35 12 -61 6
-61 -14 0 -17 -43 -27 -116 -27 -50 0 -55 2 -70 32 -9 18 -20 44 -25 58 -7 23
-7 23 -8 3 -1 -12 3 -33 9 -47 13 -34 -3 -33 -28 2 -30 42 -36 86 -17 125 18
38 53 68 166 145 42 28 96 73 120 100 37 42 45 47 53 33 5 -9 20 -29 35 -45z"/>
<path d="M660 1561 c0 -5 11 -16 25 -25 14 -9 23 -22 19 -27 -4 -7 -15 -2 -28
10 -31 30 -44 26 -16 -4 13 -14 30 -25 37 -25 25 0 26 30 3 56 -24 25 -40 31
-40 15z"/>
<path d="M1584 1528 c-16 -12 -31 -23 -33 -25 -2 -2 -1 -6 2 -10 4 -3 17 2 28
13 l22 19 -18 -27 c-9 -16 -13 -28 -9 -28 12 0 36 16 33 21 -1 2 1 14 5 27 11
33 3 36 -30 10z"/>
<path d="M1620 1500 c-8 -5 -11 -10 -6 -10 5 0 1 -9 -9 -20 -24 -26 -12 -25
25 2 37 27 28 53 -10 28z"/>
<path d="M600 1483 c1 -15 51 -45 66 -39 21 8 17 25 -4 19 -10 -2 -24 3 -31
11 -14 17 -31 21 -31 9z"/>
<path d="M1643 1438 c-31 -10 -45 -28 -23 -28 6 0 10 -7 10 -16 0 -13 5 -12
30 6 17 12 30 28 30 36 0 16 -2 16 -47 2z m22 -18 c-3 -5 -11 -10 -16 -10 -6
0 -7 5 -4 10 3 6 11 10 16 10 6 0 7 -4 4 -10z"/>
<path d="M570 1435 c0 -2 14 -12 31 -20 39 -21 30 -32 -11 -15 -17 7 -33 10
-37 6 -8 -8 66 -38 77 -31 17 11 11 32 -15 49 -24 16 -45 21 -45 11z"/>
<path d="M1673 1368 c-31 -15 -30 -48 0 -48 33 0 59 22 51 43 -7 19 -19 20
-51 5z m37 -18 c0 -5 -4 -10 -9 -10 -5 0 -16 -3 -25 -6 -9 -3 -16 -1 -16 4 0
9 16 17 43 21 4 0 7 -3 7 -9z"/>
<path d="M545 1320 c-12 -19 5 -31 27 -19 18 10 20 9 15 -5 -4 -10 -3 -15 3
-11 6 3 10 13 10 22 0 11 -6 14 -26 9 -17 -5 -23 -3 -19 4 3 5 4 10 1 10 -3 0
-8 -4 -11 -10z"/>
<path d="M1670 1280 c0 -5 5 -10 11 -10 6 0 9 -7 5 -15 -7 -19 -2 -19 34 0 41
21 37 35 -10 35 -22 0 -40 -4 -40 -10z m55 -10 c-3 -5 -10 -10 -16 -10 -5 0
-9 5 -9 10 0 6 7 10 16 10 8 0 12 -4 9 -10z"/>
<path d="M506 1265 c-10 -28 -8 -30 34 -30 22 -1 40 3 40 7 0 4 -11 8 -25 8
-13 0 -28 7 -33 16 -8 15 -10 15 -16 -1z"/>
<path d="M1690 1210 c-12 -8 -10 -10 10 -10 22 -1 23 -2 8 -11 -29 -17 -20
-25 22 -21 22 2 40 8 40 14 0 5 -10 7 -22 3 -21 -6 -22 -5 -5 8 9 8 17 17 17
21 0 10 -53 7 -70 -4z"/>
<path d="M490 1181 c0 -5 10 -13 22 -17 l23 -7 -23 -8 c-36 -14 -25 -29 21
-28 35 1 38 2 17 9 l-25 7 25 10 25 10 -25 8 -25 9 25 7 c20 6 17 7 -17 8 -24
1 -43 -3 -43 -8z"/>
<path d="M1708 1123 c12 -2 32 -2 45 0 12 2 2 4 -23 4 -25 0 -35 -2 -22 -4z"/>
<path d="M622 918 c3 -7 87 -48 189 -90 133 -55 196 -77 229 -77 40 0 20 10
-173 89 -219 90 -252 101 -245 78z"/>
<path d="M1396 842 c-179 -74 -204 -87 -174 -90 26 -2 85 18 219 72 101 42
190 83 198 91 33 33 -38 11 -243 -73z"/>
<path d="M675 705 c-14 -13 -25 -36 -25 -50 0 -14 11 -37 25 -50 l24 -25 429
0 c419 0 430 0 456 21 36 28 36 80 0 108 -26 21 -37 21 -456 21 l-429 0 -24
-25z m293 -4 c8 -5 12 -23 10 -47 -3 -36 -6 -39 -35 -42 -33 -3 -33 -3 -33 42
0 51 23 70 58 47z m-153 -46 c0 -36 -3 -40 -27 -43 -27 -3 -28 -2 -28 43 0 45
1 46 28 43 24 -3 27 -7 27 -43z m77 1 c9 -45 5 -54 -17 -36 -10 8 -15 9 -15 1
0 -6 -4 -11 -10 -11 -11 0 -13 33 -4 68 10 36 37 23 46 -22z m146 2 c-2 -36
-7 -44 -25 -46 -18 -3 -23 2 -23 18 0 12 5 18 10 15 6 -4 10 7 10 24 0 21 5
31 16 31 12 0 14 -9 12 -42z m68 15 c3 -16 8 -36 11 -45 5 -21 -8 -23 -25 -6
-9 9 -12 9 -12 0 0 -7 -4 -12 -10 -12 -11 0 -13 33 -4 68 9 31 32 28 40 -5z
m84 -18 c0 -42 -19 -66 -21 -27 -1 16 -2 16 -6 0 -2 -10 -11 -18 -19 -18 -10
0 -14 13 -14 45 0 43 1 45 30 45 29 0 30 -2 30 -45z m75 0 c0 -36 -3 -40 -27
-43 -27 -3 -28 -2 -28 43 0 45 1 46 28 43 24 -3 27 -7 27 -43z m68 28 c14 -52
16 -73 8 -73 -5 0 -13 5 -17 11 -5 8 -9 8 -14 -1 -16 -26 -26 -4 -17 38 8 43
32 57 40 25z m87 -28 c0 -42 -19 -66 -21 -27 -1 16 -2 16 -6 0 -2 -10 -11 -18
-19 -18 -10 0 -14 13 -14 45 0 43 1 45 30 45 29 0 30 -2 30 -45z m52 8 l1 -38
4 38 c6 52 25 47 21 -5 -3 -38 -6 -43 -28 -43 -22 0 -25 5 -28 43 -2 33 0 42
12 42 11 0 16 -11 18 -37z"/>
<path d="M827 554 c-3 -4 -21 -10 -39 -14 l-33 -7 26 -7 c19 -5 41 -1 70 12
44 20 44 20 13 21 -17 1 -33 -2 -37 -5z"/>
<path d="M1409 538 c30 -14 51 -17 70 -12 l26 8 -25 4 c-14 2 -29 8 -34 13 -6
5 -26 9 -45 8 l-36 -1 44 -20z"/>
</g>
</svg>
