<?xml version="1.0" standalone="no"?>
<!DOCTYPE svg PUBLIC "-//W3C//DTD SVG 20010904//EN"
 "http://www.w3.org/TR/2001/REC-SVG-20010904/DTD/svg10.dtd">
<svg version="1.0" xmlns="http://www.w3.org/2000/svg"
 width="493.000000pt" height="622.000000pt" viewBox="0 0 493.000000 622.000000"
 preserveAspectRatio="xMidYMid meet">

<g transform="translate(0.000000,622.000000) scale(0.100000,-0.100000)"
fill="#000000" stroke="none">
<path d="M2180 6213 c-445 -19 -1069 -74 -1275 -113 -27 -5 -86 -14 -130 -20
-141 -19 -133 -15 -151 -78 -71 -245 -235 -429 -507 -565 l-102 -52 -3 -497
c-2 -435 0 -498 13 -512 9 -8 36 -32 61 -53 104 -84 200 -239 245 -393 18 -63
22 -108 26 -275 4 -170 1 -236 -21 -440 -48 -435 -30 -817 56 -1214 107 -500
352 -906 723 -1201 215 -171 417 -279 895 -480 285 -120 370 -172 412 -253 36
-72 49 -73 83 -7 46 91 146 151 485 290 632 259 977 511 1245 910 235 350 371
867 382 1455 4 202 2 260 -22 480 -32 296 -36 557 -12 670 45 199 131 347 276
473 l61 54 -2 496 -3 496 -101 51 c-272 140 -425 306 -504 550 -12 39 -24 71
-25 73 -6 7 -337 55 -565 82 -501 60 -1140 90 -1540 73z m925 -273 c329 -18
938 -78 967 -96 4 -3 8 -13 8 -23 0 -39 42 -136 84 -194 48 -68 115 -134 189
-187 56 -40 64 -32 -88 -79 -55 -16 -140 -50 -190 -74 -96 -47 -245 -158 -245
-182 0 -23 13 -18 46 16 96 103 285 198 484 244 l75 17 72 -45 73 -44 -61 -12
c-215 -43 -489 -155 -489 -201 0 -9 82 -66 202 -140 111 -69 210 -132 220
-140 17 -14 13 -23 -70 -150 -211 -326 -287 -440 -294 -440 -3 0 -44 22 -90
48 -112 64 -229 115 -240 104 -5 -5 34 -27 89 -52 54 -25 132 -65 175 -91 l77
-46 62 96 c164 252 331 501 337 501 12 0 112 -64 112 -73 0 -4 -9 -20 -19 -35
-27 -38 -381 -579 -410 -624 -12 -21 -26 -38 -31 -38 -4 0 -52 28 -106 62
-531 335 -1174 509 -1733 469 -506 -36 -966 -188 -1418 -467 -57 -35 -107 -64
-111 -63 -8 0 -456 675 -460 694 -3 13 88 75 111 75 6 0 42 -46 78 -103 162
-249 302 -463 310 -471 4 -4 34 7 66 27 66 40 227 121 261 131 25 8 30 26 7
26 -19 0 -178 -76 -261 -124 l-61 -36 -133 203 c-73 111 -157 239 -186 284
l-53 82 27 19 c15 10 116 71 225 136 138 82 197 123 197 136 0 33 -146 113
-280 153 -47 14 -121 33 -165 42 -44 9 -86 18 -94 21 -9 3 13 21 54 45 77 45
72 45 225 -2 159 -48 264 -104 388 -207 64 -53 81 -48 26 9 -89 92 -287 193
-456 235 -43 10 -78 22 -78 25 0 3 21 21 48 39 136 97 237 224 273 342 16 53
26 69 42 73 69 15 470 55 747 75 402 29 1021 33 1465 10z m-888 -1556 c-3 -3
-12 -4 -19 -1 -8 3 -5 6 6 6 11 1 17 -2 13 -5z m130 -50 l122 -27 83 21 c258
65 546 47 843 -51 92 -30 100 -35 97 -57 -2 -13 -12 -30 -22 -39 -10 -9 -36
-76 -60 -156 -23 -77 -53 -174 -66 -215 -13 -41 -39 -127 -58 -190 -48 -161
-111 -368 -147 -483 l-30 -98 -47 39 c-57 47 -131 92 -192 117 -39 16 -80 18
-325 21 -154 1 -302 -2 -330 -6 -27 -4 -59 -4 -70 0 -38 14 -174 -48 -264
-121 -40 -32 -63 -45 -66 -37 -2 7 -23 74 -45 148 -79 261 -90 297 -145 475
-30 99 -76 250 -101 335 -26 88 -54 162 -64 171 -10 9 -20 26 -22 39 -3 21 5
26 82 52 289 99 569 120 827 62z m-1704 -189 c16 -24 25 -50 21 -56 -4 -8 -3
-9 4 -5 7 4 26 -16 49 -51 44 -68 52 -75 76 -69 20 5 21 -1 3 -34 -10 -17 -11
-31 -4 -50 6 -16 7 -79 3 -170 -11 -212 -12 -220 -19 -227 -9 -9 -7 -58 3 -69
10 -10 41 -194 45 -269 10 -170 19 -235 30 -219 11 14 13 13 27 -3 9 -10 29
-52 44 -93 16 -41 31 -77 34 -80 7 -6 11 -22 17 -68 2 -19 7 -39 11 -46 4 -6
8 -15 9 -21 1 -5 9 -36 17 -67 8 -32 12 -58 9 -58 -4 0 -26 13 -48 28 -23 15
-52 34 -65 43 -13 9 -55 35 -93 59 -38 24 -74 50 -81 57 -10 10 -14 7 -17 -17
-2 -16 0 -36 4 -45 5 -8 20 -63 33 -123 23 -100 24 -108 8 -119 -9 -7 -22 -13
-27 -13 -12 0 -96 137 -113 185 -31 84 -54 175 -48 185 4 7 16 10 26 7 17 -5
16 -1 -6 37 -28 48 -70 174 -79 236 -3 23 -10 58 -15 78 -21 83 -23 149 -6
208 10 34 14 70 10 88 -3 17 -10 96 -15 175 -6 116 -5 156 7 200 8 31 16 65
19 75 2 11 14 35 28 55 19 29 25 53 29 121 5 85 24 180 36 180 3 0 19 -20 34
-45z m3683 36 c-3 -4 1 -42 10 -82 14 -68 15 -160 2 -229 -3 -14 -3 -17 -1 -7
3 10 14 17 27 17 18 0 26 -9 36 -42 25 -80 21 -352 -7 -493 -5 -27 -4 -28 11
-15 36 29 47 -29 33 -165 -3 -27 -7 -50 -8 -50 -2 0 -4 -11 -13 -75 -3 -20
-24 -90 -46 -155 -23 -66 -41 -126 -42 -132 -1 -7 -5 -13 -10 -13 -4 0 -8 -4
-8 -10 0 -5 12 -10 26 -10 17 0 24 -5 22 -12 -3 -7 -13 -38 -22 -68 -21 -68
-99 -226 -131 -266 -22 -27 -25 -28 -41 -12 -15 15 -16 23 -4 80 7 35 19 78
26 96 7 18 9 30 3 27 -10 -7 -4 28 12 73 12 32 11 51 -1 32 -5 -8 -10 -11 -10
-7 0 5 -26 -9 -57 -31 -121 -83 -247 -162 -251 -158 -4 4 16 67 38 121 5 11
18 50 30 87 23 74 84 163 103 151 7 -4 7 0 -1 10 -9 10 -12 30 -8 54 3 21 8
72 11 114 3 41 14 107 25 145 12 38 25 89 31 114 5 25 21 62 35 82 14 20 23
41 20 47 -4 5 -9 38 -12 73 -3 35 -7 70 -9 78 -24 82 -26 378 -2 363 6 -3 7
-1 3 5 -4 6 -14 8 -23 5 -11 -4 -14 -3 -9 6 4 6 0 23 -9 37 l-16 25 30 -15
c16 -9 34 -16 39 -16 5 0 29 29 52 65 23 36 47 62 53 58 6 -3 7 -1 3 5 -6 11
48 102 60 102 3 0 3 -4 0 -9z m-1814 -1038 c45 -47 93 -134 108 -194 l11 -45
52 25 c60 30 145 33 195 7 54 -28 151 -136 106 -119 -8 3 -32 0 -52 -7 -46
-15 -89 -73 -102 -138 -11 -53 -18 -542 -9 -542 22 0 35 238 20 367 -10 81 -9
106 1 122 16 27 59 44 89 36 20 -5 28 -1 38 18 29 53 106 73 149 37 l23 -19
-35 -31 c-21 -19 -33 -37 -29 -46 3 -8 -2 -25 -10 -38 -9 -12 -20 -61 -27
-107 -27 -210 -33 -246 -46 -278 -8 -18 -11 -37 -8 -42 3 -5 1 -9 -4 -9 -6 0
-13 -7 -16 -16 -5 -12 0 -15 22 -13 15 1 34 -1 42 -4 8 -3 24 -7 35 -9 16 -3
21 -12 23 -47 l3 -43 40 6 c88 14 189 83 234 160 52 89 54 202 4 279 -21 32
-94 87 -134 101 -19 7 -17 10 14 37 75 62 155 81 243 55 68 -19 147 -87 178
-151 12 -25 25 -43 28 -41 4 2 7 -10 6 -27 -1 -44 -19 -44 -32 0 -41 137 -165
225 -287 202 -81 -15 -140 -60 -97 -73 31 -10 88 -69 113 -117 31 -60 32 -173
2 -241 -26 -58 -91 -129 -147 -162 -49 -29 -158 -61 -178 -54 -7 3 -15 21 -16
39 -1 18 -4 34 -5 36 -2 1 -120 -68 -262 -153 -143 -86 -276 -165 -296 -176
l-37 -20 -295 176 c-162 97 -298 176 -301 176 -3 0 -6 -18 -6 -40 0 -47 -7
-49 -91 -24 -104 31 -192 102 -239 193 -27 54 -37 155 -20 207 19 59 66 121
110 146 22 13 39 28 37 33 -7 24 -92 55 -151 55 -120 0 -200 -68 -257 -217 -6
-15 -14 -21 -25 -16 -8 3 -12 9 -7 12 5 3 17 27 27 53 21 57 95 142 145 168
50 25 117 33 174 21 75 -17 178 -101 124 -101 -24 0 -101 -60 -128 -100 -35
-52 -46 -132 -28 -198 31 -115 117 -194 257 -235 l52 -16 0 44 c0 42 1 44 38
54 20 6 49 11 64 11 l27 0 -24 53 c-18 38 -30 97 -44 209 -20 156 -29 204 -40
223 -3 6 -6 17 -8 25 -1 8 -17 28 -35 43 -32 28 -33 28 -13 43 34 26 66 28
103 8 19 -10 41 -29 50 -41 12 -19 20 -22 47 -17 25 4 38 0 64 -22 l32 -27 -8
-76 c-16 -150 -6 -401 15 -401 8 0 5 450 -4 528 -3 29 -10 50 -15 47 -5 -3 -7
0 -4 7 3 7 -6 25 -20 40 -14 15 -25 30 -25 33 1 19 -1 23 -12 22 -27 -2 -88
16 -88 26 0 22 93 96 142 113 60 20 111 14 180 -21 l48 -24 0 29 c0 26 60 157
78 170 5 3 21 22 36 43 16 20 34 37 40 37 7 0 28 -17 48 -37z m-1627 -590
c124 -83 240 -142 335 -174 99 -33 193 -75 203 -91 16 -25 1 -48 -31 -48 -16
0 -78 9 -139 20 -111 20 -137 19 -146 -3 -2 -7 -12 -57 -22 -112 -10 -55 -20
-103 -24 -107 -8 -9 -247 109 -348 172 -73 45 -87 63 -57 74 9 4 45 25 80 47
52 34 63 46 59 63 -3 11 -14 64 -25 116 -11 52 -23 103 -26 114 -9 27 2 21
141 -71z m3291 60 c-9 -30 -46 -220 -46 -236 0 -8 36 -36 80 -63 44 -27 80
-52 80 -55 0 -11 -163 -106 -280 -163 -63 -31 -123 -61 -132 -66 -13 -7 -18
-4 -22 18 -3 15 -13 66 -22 113 -9 48 -20 92 -25 100 -6 11 -21 11 -91 0 -46
-7 -113 -16 -150 -18 -57 -4 -69 -3 -74 12 -13 33 10 45 216 121 122 45 203
89 337 179 112 76 138 88 129 58z m-2916 -374 c58 -11 120 -18 138 -15 36 5
36 6 21 -64 -13 -59 -16 -60 -120 -24 -115 40 -190 89 -174 114 8 14 14 13
135 -11z m2538 -6 c-2 -10 -21 -30 -44 -45 -47 -32 -224 -93 -235 -81 -4 4
-11 32 -15 61 l-7 52 54 0 c30 1 83 7 119 14 97 20 132 20 128 -1z m-2652 -44
c11 -18 122 -64 214 -89 214 -57 293 -91 276 -118 -5 -8 -43 -12 -110 -12 -71
0 -107 -4 -114 -13 -6 -6 -22 -59 -37 -117 -14 -58 -30 -109 -34 -113 -11 -11
-165 59 -223 101 -58 41 -57 38 -38 172 22 156 32 200 45 200 8 0 17 -5 21
-11z m2678 -75 c34 -186 39 -234 22 -258 -18 -29 -81 -66 -185 -111 -71 -30
-81 -32 -85 -17 -3 9 -14 58 -26 108 -30 132 -28 130 -149 126 -86 -2 -102 0
-108 13 -3 9 1 22 8 30 20 18 119 54 214 76 97 24 196 60 250 93 22 14 41 23
42 22 2 -1 9 -38 17 -82z m-2881 -49 c114 -55 115 -56 113 -88 -2 -17 -4 -47
-5 -64 0 -19 -6 -33 -13 -33 -22 1 -218 211 -218 234 0 10 3 9 123 -49z m3147
40 c0 -2 -10 -22 -22 -44 -20 -35 -158 -189 -181 -201 -5 -3 -11 20 -13 50 -3
30 -6 65 -9 77 -4 22 -1 25 28 27 6 1 14 4 17 8 5 7 160 85 173 87 4 0 7 -1 7
-4z m-2466 -163 c5 -9 -19 -110 -28 -119 -7 -8 -115 37 -148 61 -17 12 -28 29
-28 43 0 22 2 23 99 23 55 0 102 -4 105 -8z m1876 -2 c25 -16 0 -42 -80 -82
-41 -21 -80 -38 -87 -38 -9 0 -33 78 -33 110 0 17 175 26 200 10z m-1963 -119
c142 -62 308 -103 560 -140 95 -14 605 -15 708 -1 287 39 499 96 655 175 42
21 54 24 61 13 5 -7 9 -18 9 -24 0 -6 3 -25 6 -41 5 -27 3 -31 -22 -37 -47
-12 -58 -26 -35 -47 10 -10 24 -41 31 -69 11 -45 10 -53 -5 -70 -21 -23 -48
-26 -62 -7 -15 19 -34 107 -28 127 8 26 -6 31 -49 18 -43 -13 -56 -33 -34 -51
9 -7 21 -34 27 -62 18 -74 35 -95 77 -95 51 0 100 26 114 61 11 25 10 41 -5
94 -12 45 -14 69 -7 81 9 15 12 12 20 -21 35 -132 48 -204 41 -224 -26 -70
-306 -171 -639 -232 -107 -19 -168 -23 -421 -27 -275 -3 -310 -2 -487 22 -389
53 -645 135 -721 232 -18 23 -18 28 -5 82 8 31 19 77 24 102 9 38 42 153 56
199 4 11 8 10 23 -3 11 -10 59 -35 108 -55z m-264 -95 c34 -16 57 -32 57 -41
0 -28 -22 -105 -32 -111 -10 -6 -87 67 -130 125 -25 33 -25 37 -10 52 18 18
20 17 115 -25z m2467 19 c-7 -8 -19 -15 -26 -15 -8 0 -14 -5 -14 -11 0 -7 10
-9 25 -7 25 5 25 -2 -2 -32 -7 -8 -31 -39 -53 -68 -23 -29 -45 -50 -49 -48 -5
3 -14 33 -20 67 -14 69 -13 71 49 89 19 6 46 17 60 25 33 19 46 19 30 0z
m-270 -395 c12 -17 26 -28 31 -24 5 3 8 2 7 -3 -2 -5 5 -25 16 -44 14 -27 31
-40 77 -58 33 -12 59 -26 59 -31 0 -5 9 -12 20 -15 24 -7 130 -110 130 -125 0
-6 -14 -5 -35 4 -19 8 -35 13 -35 10 0 -3 -5 -2 -12 2 -6 4 -27 8 -45 9 l-34
1 79 -77 c76 -74 79 -78 54 -81 -35 -5 -71 13 -119 57 -21 19 -63 44 -93 55
-30 12 -62 23 -70 27 -8 3 -19 7 -25 9 -5 2 -42 14 -81 28 -67 24 -74 25 -108
11 -45 -19 -150 -19 -281 0 -110 16 -215 19 -215 7 0 -4 16 -23 35 -42 44 -42
44 -66 1 -121 -164 -213 -450 -246 -650 -74 -61 51 -106 112 -106 141 0 10 16
36 35 56 19 20 35 39 35 42 0 11 -125 6 -220 -9 -139 -21 -242 -20 -290 5 -34
17 -46 19 -86 10 -25 -6 -64 -19 -87 -30 -22 -11 -48 -20 -56 -20 -9 0 -27 -9
-41 -20 -14 -11 -30 -20 -37 -20 -6 0 -18 -6 -25 -13 -11 -10 -124 -87 -175
-120 -8 -5 -15 -3 -19 6 -8 23 44 88 114 143 72 56 64 65 -31 35 -61 -19 -107
-19 -107 0 0 8 113 89 125 89 4 0 19 9 34 19 15 11 39 23 54 26 15 4 27 12 27
18 0 6 3 8 6 4 15 -14 70 25 104 74 20 30 45 56 55 58 15 3 15 -1 -6 -29 -35
-46 -69 -103 -69 -117 0 -8 20 -3 55 13 70 32 222 53 259 36 56 -25 23 -70
-67 -93 -59 -14 -66 -24 -28 -43 44 -23 126 -29 221 -16 312 41 359 31 275
-61 -19 -22 -35 -43 -35 -48 0 -29 118 -144 185 -179 121 -62 295 -53 416 24
48 30 115 98 135 136 14 26 13 29 -21 67 -19 21 -35 46 -35 55 0 36 39 39 226
16 186 -23 252 -22 304 5 39 20 33 29 -27 44 -65 17 -93 36 -93 66 0 20 6 25
36 31 53 10 189 -12 251 -40 29 -14 53 -23 53 -20 0 16 -45 94 -69 120 -27 29
-31 44 -10 44 4 0 17 -14 29 -30z"/>
<path d="M2176 5774 c-14 -13 -16 -53 -16 -285 0 -256 1 -270 20 -289 24 -24
39 -25 66 -6 18 13 19 31 24 238 l5 223 43 -175 c24 -96 50 -196 58 -222 23
-72 69 -96 113 -60 17 13 34 64 76 230 29 117 56 216 59 219 3 4 6 -93 6 -215
l0 -222 25 -16 c30 -20 63 -10 76 23 5 13 9 138 9 276 0 305 3 297 -99 297
-44 0 -72 -5 -79 -13 -6 -7 -32 -89 -57 -183 -25 -93 -49 -178 -52 -189 -4
-13 -16 17 -35 90 -16 61 -38 145 -50 188 -11 43 -27 85 -35 93 -21 20 -136
19 -157 -2z"/>
<path d="M1525 5771 c-93 -23 -140 -77 -140 -162 0 -100 62 -148 231 -180 77
-14 115 -42 116 -87 2 -50 -37 -83 -101 -90 -71 -6 -102 9 -137 71 -31 55 -56
67 -93 47 -43 -22 -21 -102 43 -158 46 -40 104 -55 186 -50 84 6 150 36 186
84 25 33 29 46 29 105 0 111 -36 143 -208 185 -107 26 -147 49 -147 83 0 49
73 86 142 72 24 -5 43 -20 68 -54 41 -56 79 -63 106 -22 15 23 15 27 -6 69
-38 79 -155 116 -275 87z"/>
<path d="M3122 5753 c-6 -16 -19 -146 -28 -290 -20 -294 -20 -296 45 -291 46
4 61 32 61 118 l0 65 49 43 c28 23 54 42 59 42 6 0 43 -60 82 -132 40 -73 79
-141 88 -150 17 -21 72 -24 90 -6 29 29 16 62 -97 253 -40 65 -68 121 -64 125
130 106 174 146 179 162 9 29 -22 68 -54 68 -22 0 -58 -28 -168 -129 -76 -71
-141 -128 -144 -126 -3 2 -2 54 3 116 11 139 4 159 -52 159 -33 0 -40 -4 -49
-27z"/>
<path d="M2251 4991 c-71 -25 -102 -57 -108 -112 -9 -87 60 -144 189 -155 71
-7 196 16 235 41 22 15 24 21 18 58 -4 23 -9 44 -12 47 -6 7 -184 1 -196 -7
-20 -12 27 -33 75 -33 44 0 48 -2 48 -24 0 -21 -7 -25 -62 -36 -83 -15 -143
-2 -180 40 -92 102 79 214 207 135 45 -28 77 -31 94 -11 16 19 -19 52 -68 66
-58 16 -180 11 -240 -9z"/>
<path d="M2722 4978 c-11 -14 -32 -158 -32 -219 0 -43 -15 -38 167 -64 156
-23 210 -19 171 12 -7 6 -56 16 -108 22 -147 19 -143 18 -137 59 4 19 8 36 11
39 4 4 148 -12 191 -22 28 -6 53 11 39 25 -9 9 -172 39 -216 40 -5 0 -8 16 -8
35 0 41 -6 40 135 21 100 -13 125 -12 125 5 0 17 -44 28 -170 44 -152 18 -155
18 -168 3z"/>
<path d="M1831 4946 c-139 -32 -165 -45 -156 -76 2 -8 14 -61 26 -117 l23
-103 30 0 c38 0 274 49 299 61 19 11 22 25 7 34 -5 3 -62 -6 -126 -20 -64 -14
-120 -23 -124 -18 -4 4 -10 22 -13 40 l-6 32 97 21 c104 22 124 30 130 48 6
18 -39 15 -140 -9 -97 -23 -108 -20 -108 28 0 19 10 24 98 43 117 26 145 36
139 53 -6 19 -24 18 -176 -17z"/>
<path d="M3181 4888 c-25 -67 -63 -218 -58 -231 7 -19 55 -31 72 -17 7 6 18
31 25 56 12 42 15 45 39 39 43 -10 74 -39 112 -105 20 -34 43 -66 50 -71 18
-11 56 -12 63 -1 7 12 -29 82 -59 115 l-26 27 46 0 c61 0 85 14 85 48 0 60
-37 84 -199 132 -121 36 -139 37 -150 8z m160 -54 c30 -9 64 -22 77 -30 26
-17 29 -52 6 -61 -19 -7 -161 25 -170 38 -9 15 6 69 20 69 7 0 37 -7 67 -16z"/>
<path d="M1473 4860 c-30 -12 -29 -24 7 -116 17 -42 29 -78 28 -79 -2 -1 -59
19 -128 46 -132 51 -164 57 -192 35 -25 -19 -22 -38 25 -156 40 -99 44 -105
71 -105 50 0 53 23 18 115 -17 45 -25 80 -19 77 7 -2 69 -25 138 -52 117 -44
128 -46 155 -34 16 8 30 23 32 35 4 29 -81 239 -99 241 -8 1 -24 -2 -36 -7z"/>
<path d="M3663 4748 c-16 -22 -93 -208 -93 -227 0 -25 20 -41 51 -41 24 0 30
9 73 111 25 61 46 117 46 125 0 14 -38 44 -56 44 -6 0 -16 -6 -21 -12z"/>
<path d="M2404 4260 c-60 -9 -166 -54 -190 -81 -15 -17 -32 -19 -138 -19 -176
0 -403 -30 -390 -51 3 -6 12 -8 20 -5 63 24 442 51 460 33 4 -3 -4 -20 -16
-37 -26 -36 -22 -55 15 -64 22 -6 34 0 66 29 62 56 76 59 150 40 35 -10 77
-18 94 -19 40 -1 58 -38 45 -88 -13 -45 -42 -72 -72 -65 -224 50 -222 50 -393
50 -186 0 -347 -24 -323 -48 2 -3 36 2 74 10 187 40 452 27 623 -31 20 -7 -7
-34 -79 -78 l-60 -37 -76 10 c-97 14 -189 14 -313 0 -91 -11 -133 -22 -121
-32 3 -2 46 2 95 10 61 9 137 13 233 10 l144 -5 31 -30 c31 -30 33 -30 67 -16
29 12 43 13 77 3 23 -6 49 -9 58 -5 22 8 89 -56 102 -98 12 -39 17 -36 -89
-62 -16 -3 -28 -10 -28 -15 0 -12 5 -11 70 6 30 8 56 12 58 10 8 -8 -9 -90
-26 -129 -14 -30 -27 -42 -62 -55 -42 -16 -48 -15 -96 0 -28 10 -87 22 -130
29 -44 6 -92 16 -108 21 -33 10 -276 -8 -291 -22 -6 -6 24 -7 80 -3 75 5 88 4
78 -7 -38 -40 9 -103 99 -134 80 -27 281 -30 373 -6 98 26 178 66 222 113 l38
40 133 -4 c133 -5 176 4 80 16 -29 3 -85 6 -125 6 l-72 0 19 43 c11 24 22 62
26 85 l7 43 111 -6 c61 -4 117 -8 124 -10 6 -3 12 0 12 5 0 13 -43 19 -152 22
l-98 3 -6 33 c-4 18 -22 56 -41 84 l-35 51 143 -6 c79 -4 167 -9 194 -13 35
-4 47 -3 40 4 -14 15 -201 34 -309 31 -69 -2 -99 2 -123 14 -18 10 -55 23 -83
30 l-50 13 62 43 61 42 121 6 c107 5 213 -3 340 -24 26 -4 37 -3 33 4 -12 19
-171 38 -324 38 l-151 0 14 34 c8 18 14 53 14 76 l0 42 73 6 c83 6 240 -6 347
-27 41 -8 77 -12 79 -10 22 21 -128 44 -329 51 l-175 5 -35 34 c-19 18 -53 40
-76 48 -54 19 -156 26 -220 16z m29 -129 c13 -5 27 -16 30 -25 5 -13 3 -14
-11 -6 -9 6 -35 17 -57 24 -35 13 -37 15 -13 15 15 1 38 -3 51 -8z m-45 -743
c47 -11 92 -16 104 -12 21 6 21 5 9 -10 -8 -9 -19 -15 -25 -13 -6 2 -17 -2
-24 -10 -17 -17 -84 -17 -125 1 -18 7 -45 28 -62 45 l-29 31 34 -6 c19 -3 72
-15 118 -26z"/>
<path d="M1957 3629 c-106 -5 -138 -11 -126 -23 2 -3 54 0 114 5 132 12 315
-1 425 -30 41 -11 78 -17 83 -12 13 13 -168 53 -274 60 -57 3 -157 3 -222 0z"/>
<path d="M595 3859 c-4 -6 -5 -12 -2 -15 2 -3 7 2 10 11 7 17 1 20 -8 4z"/>
<path d="M610 3775 c-7 -9 -10 -18 -7 -21 3 -3 10 4 17 15 13 25 8 27 -10 6z"/>
<path d="M701 3754 c0 -11 3 -14 6 -6 3 7 2 16 -1 19 -3 4 -6 -2 -5 -13z"/>
<path d="M562 3595 c0 -16 2 -22 5 -12 2 9 2 23 0 30 -3 6 -5 -1 -5 -18z"/>
<path d="M553 3450 c0 -30 2 -43 4 -27 2 15 2 39 0 55 -2 15 -4 2 -4 -28z"/>
<path d="M708 3303 c5 -21 7 -23 10 -9 2 10 0 22 -6 28 -6 6 -7 0 -4 -19z"/>
<path d="M535 3311 c-3 -5 -2 -12 3 -15 5 -3 9 1 9 9 0 17 -3 19 -12 6z"/>
<path d="M591 3184 c0 -11 3 -14 6 -6 3 7 2 16 -1 19 -3 4 -6 -2 -5 -13z"/>
<path d="M711 3164 c0 -11 3 -14 6 -6 3 7 2 16 -1 19 -3 4 -6 -2 -5 -13z"/>
<path d="M611 3074 c0 -11 3 -14 6 -6 3 7 2 16 -1 19 -3 4 -6 -2 -5 -13z"/>
<path d="M621 3024 c0 -11 3 -14 6 -6 3 7 2 16 -1 19 -3 4 -6 -2 -5 -13z"/>
<path d="M823 2820 c0 -25 2 -35 4 -22 2 12 2 32 0 45 -2 12 -4 2 -4 -23z"/>
<path d="M822 2690 c0 -14 2 -19 5 -12 2 6 2 18 0 25 -3 6 -5 1 -5 -13z"/>
<path d="M690 2685 c0 -5 5 -17 10 -25 5 -8 10 -10 10 -5 0 6 -5 17 -10 25 -5
8 -10 11 -10 5z"/>
<path d="M4166 3867 c3 -10 9 -15 12 -12 3 3 0 11 -7 18 -10 9 -11 8 -5 -6z"/>
<path d="M4321 3784 c0 -11 3 -14 6 -6 3 7 2 16 -1 19 -3 4 -6 -2 -5 -13z"/>
<path d="M4327 3720 c4 -14 13 -45 20 -70 12 -40 13 -41 9 -10 -2 19 -11 51
-20 70 -9 19 -13 24 -9 10z"/>
<path d="M4231 3674 c0 -11 3 -14 6 -6 3 7 2 16 -1 19 -3 4 -6 -2 -5 -13z"/>
<path d="M4353 3425 c0 -33 2 -45 4 -27 2 18 2 45 0 60 -2 15 -4 0 -4 -33z"/>
<path d="M4208 3318 c-3 -7 -1 -24 3 -38 6 -22 7 -20 8 13 1 38 -3 47 -11 25z"/>
<path d="M4211 3184 c0 -11 3 -14 6 -6 3 7 2 16 -1 19 -3 4 -6 -2 -5 -13z"/>
<path d="M4312 3180 c0 -14 2 -19 5 -12 2 6 2 18 0 25 -3 6 -5 1 -5 -13z"/>
<path d="M4262 2940 c0 -14 2 -19 5 -12 2 6 2 18 0 25 -3 6 -5 1 -5 -13z"/>
<path d="M4251 2884 c0 -11 3 -14 6 -6 3 7 2 16 -1 19 -3 4 -6 -2 -5 -13z"/>
<path d="M4220 2639 c-7 -11 -10 -23 -7 -25 2 -2 9 7 15 21 14 30 7 33 -8 4z"/>
<path d="M4055 2620 c-9 -16 -13 -30 -11 -30 3 0 12 14 21 30 9 17 13 30 11
30 -3 0 -12 -13 -21 -30z"/>
<path d="M2439 3123 c-41 -47 -68 -90 -89 -143 -27 -67 -26 -101 4 -129 l24
-23 7 34 c10 47 72 178 84 178 13 0 71 -122 78 -165 7 -41 12 -43 42 -11 22
23 23 28 11 75 -16 69 -104 211 -130 211 -3 0 -17 -12 -31 -27z"/>
<path d="M2108 2930 c-40 -7 -99 -43 -116 -71 -9 -14 -7 -18 9 -22 14 -4 19 0
19 14 0 25 26 35 47 18 20 -17 68 -122 77 -169 7 -33 6 -34 -9 -15 -14 18 -15
17 -8 -15 4 -19 8 -81 8 -137 0 -57 3 -103 7 -103 4 0 12 17 18 38 16 56 54
127 68 128 6 1 23 2 37 3 25 1 26 3 21 54 l-5 52 11 -55 11 -56 62 1 c35 0 63
2 63 5 -1 3 4 18 10 33 17 41 17 42 -33 118 -91 137 -193 198 -297 179z m159
-173 c8 -16 12 -31 10 -34 -3 -2 -8 6 -12 18 -4 12 -24 38 -44 57 l-36 34 33
-23 c19 -13 41 -37 49 -52z"/>
<path d="M2702 2915 c-51 -22 -109 -72 -152 -129 -41 -57 -104 -175 -96 -183
2 -2 59 -5 126 -4 104 0 124 -3 140 -19 16 -16 60 -118 60 -140 0 -5 4 -11 8
-14 5 -3 9 50 10 117 0 67 -3 124 -8 127 -13 8 32 144 59 180 27 37 61 40 61
6 0 -20 4 -23 22 -18 20 5 19 8 -20 42 -58 52 -140 65 -210 35z m-2 -118 c0
-2 -10 -12 -22 -23 l-23 -19 19 23 c18 21 26 27 26 19z m-47 -62 c-3 -9 -8
-14 -10 -11 -3 3 -2 9 2 15 9 16 15 13 8 -4z m-26 -112 c-3 -10 -5 -2 -5 17 0
19 2 27 5 18 2 -10 2 -26 0 -35z"/>
<path d="M2461 2694 c0 -11 3 -14 6 -6 3 7 2 16 -1 19 -3 4 -6 -2 -5 -13z"/>
<path d="M1830 2693 c1 -14 49 -63 61 -63 7 0 28 -12 47 -27 27 -20 34 -23 29
-9 -4 10 -7 24 -7 31 0 7 -14 27 -31 44 -22 23 -40 31 -65 31 -19 0 -34 -3
-34 -7z"/>
<path d="M3002 2678 c-19 -22 -42 -68 -42 -88 0 -5 16 2 36 15 20 14 41 25 46
25 10 0 57 51 58 63 0 4 -17 7 -38 7 -27 0 -45 -7 -60 -22z"/>
<path d="M2875 2619 c-22 -18 -26 -27 -21 -53 3 -17 8 -60 11 -96 3 -36 8 -75
10 -87 5 -22 -10 -186 -21 -230 -4 -16 -2 -23 9 -23 25 0 67 186 67 302 0 50
-2 57 -17 51 -14 -5 -12 1 7 32 33 53 27 124 -11 125 -4 0 -19 -10 -34 -21z"/>
<path d="M1990 2604 c-15 -38 -13 -45 29 -93 l38 -45 12 53 c15 71 14 78 -11
95 -33 23 -57 20 -68 -10z"/>
<path d="M3000 2527 l-35 -22 -3 -85 c-4 -99 -23 -194 -52 -250 -25 -49 -25
-50 5 -50 43 0 74 95 95 295 7 61 17 116 22 123 13 16 10 15 -32 -11z"/>
<path d="M1904 2524 c3 -8 11 -68 17 -132 6 -72 20 -147 36 -194 24 -74 27
-78 55 -78 16 0 28 3 26 8 -44 85 -65 166 -74 286 -6 85 -9 97 -30 111 -30 19
-38 19 -30 -1z"/>
<path d="M2000 2427 c0 -113 42 -312 64 -304 6 2 10 13 9 23 -20 160 -24 227
-15 268 8 37 7 46 -4 46 -8 0 -14 4 -14 9 0 5 -9 11 -20 14 -18 5 -20 0 -20
-56z"/>
<path d="M2290 2390 c0 -5 5 -10 11 -10 5 0 7 5 4 10 -3 6 -8 10 -11 10 -2 0
-4 -4 -4 -10z"/>
<path d="M2460 2205 c0 -104 3 -186 6 -182 7 6 5 359 -1 366 -3 2 -5 -80 -5
-184z"/>
<path d="M2130 2327 c0 -24 3 -78 6 -120 7 -75 8 -77 33 -77 64 0 71 8 71 71
0 51 -4 63 -32 96 -34 39 -68 73 -75 73 -1 0 -3 -20 -3 -43z"/>
<path d="M2712 2288 c-65 -73 -73 -85 -70 -117 l3 -36 71 -1 72 -2 4 37 c9 64
9 201 1 201 -4 0 -41 -37 -81 -82z"/>
<path d="M2248 2184 l-3 -56 29 6 c16 3 40 6 53 6 22 0 23 1 9 16 -9 9 -28 31
-42 50 -15 19 -30 34 -34 34 -5 0 -10 -25 -12 -56z"/>
<path d="M2597 2162 l-27 -29 30 5 c24 3 30 9 30 28 0 30 -1 30 -33 -4z"/>
<path d="M2788 2043 c7 -3 16 -2 19 1 4 3 -2 6 -13 5 -11 0 -14 -3 -6 -6z"/>
<path d="M2708 2033 c6 -2 18 -2 25 0 6 3 1 5 -13 5 -14 0 -19 -2 -12 -5z"/>
<path d="M1443 1733 c6 -33 -25 -137 -48 -163 -20 -22 -15 -26 73 -57 46 -16
69 -20 87 -13 28 11 42 51 28 83 -8 17 -5 28 10 48 15 22 17 31 8 48 -14 24
-34 36 -108 62 l-55 19 5 -27z m88 -79 c-8 -18 -15 -24 -22 -17 -6 6 -6 19 1
38 8 21 14 25 22 17 9 -9 8 -18 -1 -38z m-13 -88 c-4 -28 -38 -35 -38 -8 0 11
3 28 6 36 9 23 36 -1 32 -28z"/>
<path d="M3181 1670 c-75 -23 -78 -25 -58 -45 32 -31 46 -175 17 -175 -5 0
-32 36 -61 80 -28 44 -60 85 -71 91 -28 15 -48 -6 -48 -50 0 -41 -26 -140 -41
-155 -21 -23 -10 -39 23 -32 37 7 60 26 41 33 -24 9 -13 31 17 35 33 5 59 -5
41 -16 -23 -15 -9 -26 32 -26 24 0 52 7 63 15 10 8 33 15 50 15 16 0 39 6 49
14 19 14 19 15 2 33 -20 23 -23 67 -5 61 7 -3 21 -21 32 -41 23 -43 38 -50 71
-35 24 11 35 38 15 38 -5 0 -10 7 -10 15 0 9 -12 27 -26 40 -21 19 -24 27 -15
44 12 21 -1 71 -18 71 -5 0 -15 2 -23 4 -7 3 -42 -4 -77 -14z m57 -69 c-5 -25
-27 -23 -34 3 -9 36 5 54 23 30 7 -10 12 -25 11 -33z m-218 -103 c0 -4 -9 -8
-20 -8 -20 0 -28 29 -13 44 7 7 33 -21 33 -36z"/>
<path d="M1686 1635 c-24 -57 -79 -133 -100 -139 -31 -8 0 -36 41 -36 30 0 34
3 28 20 -5 16 -2 20 17 20 13 0 29 -4 37 -9 12 -8 13 -12 1 -26 -17 -20 -6
-30 44 -44 45 -12 60 -6 51 18 -4 9 -16 56 -26 105 -27 125 -64 161 -93 91z
m27 -77 c8 -28 4 -32 -22 -23 -17 5 -19 10 -11 26 14 25 26 24 33 -3z"/>
<path d="M1840 1621 c0 -6 5 -13 11 -17 16 -10 5 -128 -14 -158 -19 -29 -6
-46 35 -46 27 0 28 1 22 39 -3 21 -2 46 3 55 7 13 18 4 57 -49 27 -36 53 -64
60 -62 6 2 17 41 25 88 8 50 19 88 29 95 22 16 6 34 -33 34 -33 0 -33 0 -28
-40 3 -24 2 -40 -4 -40 -6 0 -29 25 -52 55 -36 48 -46 55 -76 55 -19 0 -35 -4
-35 -9z"/>
<path d="M2147 1588 c-17 -13 -17 -15 -3 -27 16 -14 19 -60 7 -115 -7 -36 -28
-45 -33 -15 -2 12 -11 27 -21 33 -15 9 -21 7 -33 -8 -19 -27 -18 -33 11 -61
24 -25 86 -34 111 -17 21 14 34 51 34 99 0 29 7 58 16 72 19 27 11 37 -36 46
-23 4 -41 1 -53 -7z"/>
<path d="M2725 1593 c-46 -10 -49 -12 -33 -31 20 -23 32 -135 18 -162 -9 -17
-14 -19 -26 -9 -8 6 -14 20 -14 30 0 10 -9 24 -19 31 -18 11 -18 14 -5 40 18
34 11 64 -18 79 -28 15 -158 2 -158 -16 0 -8 5 -17 10 -20 12 -8 13 -152 1
-159 -16 -10 -38 19 -60 80 -33 90 -57 126 -83 122 -16 -2 -25 -14 -33 -48
-14 -53 -42 -118 -63 -142 -19 -22 -7 -38 28 -38 32 0 50 18 30 30 -7 4 -9 13
-6 19 9 14 46 14 66 1 13 -8 13 -11 1 -19 -31 -20 3 -30 104 -30 96 0 131 8
105 24 -14 9 -13 78 1 73 7 -2 19 -24 28 -48 18 -49 45 -62 86 -40 11 6 25 10
31 9 5 -2 38 1 74 5 99 12 140 66 90 116 -14 14 -18 28 -14 44 3 14 3 34 -1
45 -5 18 -14 21 -63 20 -31 -1 -66 -3 -77 -6z m80 -43 c4 -12 1 -28 -7 -37
-12 -14 -14 -13 -19 13 -3 16 -4 32 -2 37 8 14 22 7 28 -13z m-220 -40 c0 -16
-6 -26 -17 -28 -14 -3 -18 3 -18 28 0 25 4 31 18 28 11 -2 17 -12 17 -28z
m-237 -48 c2 -14 -2 -22 -12 -22 -19 0 -28 14 -20 35 9 21 28 14 32 -13z m472
-23 c0 -36 -25 -39 -34 -4 -8 31 0 46 19 38 9 -3 15 -18 15 -34z"/>
</g>
</svg>
